<?xml version="1.0" encoding="iso-8859-1"?>
<!-- Generator: Adobe Illustrator 16.0.0, SVG Export Plug-In . SVG Version: 6.00 Build 0)  -->
<!DOCTYPE svg PUBLIC "-//W3C//DTD SVG 1.1//EN" "http://www.w3.org/Graphics/SVG/1.1/DTD/svg11.dtd">
<svg version="1.1" id="Capa_1" xmlns="http://www.w3.org/2000/svg" xmlns:xlink="http://www.w3.org/1999/xlink" x="0px" y="0px"
	 width="75.965px" height="75.965px" viewBox="0 0 75.965 75.965" style="enable-background:new 0 0 75.965 75.965;"
	 xml:space="preserve">
<g>
	<g>
		<g>
			<path d="M56.698,75.965c-2.52,0-4.567-2.049-4.567-4.566v-6.791c-8.343-1.51-12.806-7.094-13.272-16.617
				c0.025-2.729,2.056-4.717,4.719-4.717c2.57,0,4.66,2.08,4.66,4.637l0.002,0.406c0.127,3.383,1.375,5.551,3.893,6.666v-13.92
				c-1.595-0.514-3.005-1.033-4.202-1.549c-1.823-0.783-3.362-1.758-4.575-2.894c-1.25-1.17-2.182-2.616-2.764-4.3
				c-0.562-1.632-0.85-3.675-0.85-6.072c0-2.207,0.38-4.261,1.127-6.103c0.753-1.851,1.857-3.482,3.287-4.85
				c1.418-1.357,3.151-2.438,5.154-3.21c0.866-0.335,1.812-0.599,2.821-0.79V4.566C52.13,2.048,54.179,0,56.698,0
				c2.518,0,4.565,2.049,4.565,4.566v6.817c7.427,1.389,11.429,6.011,11.902,13.755l0.058,0.492c0.008,0.062,0.012,0.123,0.01,0.185
				c-0.026,2.594-2.101,4.626-4.722,4.626c-2.512,0-4.552-1.963-4.646-4.47l-0.012-0.211c-0.009-0.046-0.015-0.093-0.019-0.14
				c-0.167-2.236-0.996-3.756-2.573-4.665v11.744c1.697,0.554,3.213,1.113,4.516,1.669c1.904,0.813,3.522,1.822,4.809,3.001
				c1.322,1.212,2.327,2.73,2.984,4.512c0.643,1.741,0.968,3.875,0.968,6.344c0,2.327-0.402,4.529-1.196,6.543
				c-0.798,2.028-1.967,3.825-3.475,5.34c-1.502,1.512-3.34,2.725-5.461,3.604c-0.952,0.396-2.006,0.706-3.145,0.928v6.76
				C61.263,73.917,59.214,75.965,56.698,75.965z M43.577,46.273c-1.02,0-1.711,0.666-1.721,1.658
				c0.418,8.487,4.219,12.934,11.959,13.899c0.752,0.094,1.314,0.731,1.314,1.487v8.08c0,0.862,0.703,1.565,1.566,1.565
				s1.566-0.703,1.566-1.565v-8.039c0-0.756,0.562-1.394,1.311-1.487c1.382-0.177,2.621-0.49,3.685-0.933
				c1.753-0.728,3.263-1.719,4.483-2.947c1.218-1.223,2.162-2.678,2.811-4.322c0.655-1.663,0.987-3.495,0.987-5.445
				c0-2.113-0.263-3.896-0.781-5.305c-0.491-1.328-1.229-2.452-2.196-3.338c-1.035-0.948-2.367-1.773-3.959-2.453
				c-1.475-0.629-3.252-1.268-5.283-1.899c-0.627-0.195-1.056-0.775-1.056-1.433V18.784c0-0.461,0.212-0.896,0.573-1.18
				s0.833-0.388,1.281-0.278c4.015,0.978,6.326,3.708,6.695,7.9c0.014,0.063,0.021,0.128,0.024,0.193l0.024,0.408
				c0.033,0.921,0.758,1.614,1.647,1.614c0.96,0,1.673-0.659,1.72-1.578l-0.053-0.464c-0.42-6.809-3.788-10.357-10.609-11.247
				c-0.746-0.098-1.306-0.734-1.306-1.487V4.566C58.261,3.703,57.559,3,56.696,3c-0.864,0-1.567,0.703-1.567,1.566v8.015
				c0,0.759-0.565,1.398-1.319,1.489c-1.268,0.153-2.418,0.427-3.422,0.814c-1.631,0.629-3.029,1.496-4.16,2.578
				c-1.121,1.073-1.99,2.355-2.582,3.813c-0.602,1.481-0.906,3.154-0.906,4.973c0,2.063,0.229,3.776,0.686,5.092
				c0.42,1.217,1.086,2.257,1.979,3.09c0.959,0.897,2.207,1.682,3.711,2.328c1.356,0.585,3.022,1.18,4.953,1.77
				c0.631,0.191,1.063,0.773,1.063,1.435v17.063c0,0.455-0.205,0.883-0.56,1.168c-0.352,0.285-0.812,0.396-1.258,0.299
				c-5.076-1.1-7.867-4.596-8.074-10.111l-0.004-0.462C45.235,47.008,44.491,46.273,43.577,46.273z M35.771,64.057h-6.594
				c-0.915,0-1.738-0.578-2.05-1.438L19.9,42.664h-7.74v19.213c0,1.202-0.978,2.182-2.18,2.182H3.607
				c-1.202,0-2.181-0.979-2.181-2.182V12.171c0-1.199,0.976-2.178,2.174-2.181l12.233-0.04c7.389,0,12.247,1.416,15.758,4.593
				c2.962,2.613,4.601,6.522,4.601,10.994c0,6.022-1.806,10.081-6.384,14.178l8.005,21.398c0.248,0.672,0.154,1.418-0.248,2.002
				C37.151,63.708,36.482,64.057,35.771,64.057z M29.752,61.057h4.837l-7.956-21.268c-0.223-0.596-0.046-1.266,0.441-1.676
				c4.518-3.789,6.118-7.08,6.118-12.576c0-3.599-1.278-6.709-3.599-8.757c-2.933-2.652-7.171-3.83-13.755-3.83L4.426,12.987v48.07
				h4.733V41.164c0-0.829,0.672-1.5,1.5-1.5h10.294c0.632,0,1.195,0.396,1.41,0.988L29.752,61.057z M59.763,58.673
				c-0.354,0-0.698-0.125-0.972-0.356c-0.335-0.285-0.528-0.703-0.528-1.144V41.969c0-0.486,0.236-0.943,0.634-1.225
				c0.396-0.281,0.905-0.354,1.364-0.19l0.915,0.324c1.682,0.606,3.029,1.249,4.008,1.911c1.163,0.787,1.977,1.732,2.413,2.812
				c0.388,0.955,0.582,2.096,0.582,3.393c0,3.006-0.948,5.436-2.817,7.223c-1.312,1.254-3.114,2.074-5.357,2.438
				C59.923,58.668,59.843,58.673,59.763,58.673z M61.263,44.127v11.127c0.819-0.298,1.497-0.701,2.024-1.206
				c1.256-1.198,1.892-2.899,1.892-5.054c0-0.909-0.122-1.672-0.362-2.266c-0.209-0.517-0.651-1.006-1.314-1.455
				C62.94,44.893,62.19,44.509,61.263,44.127z M16.502,36.467h-5.841c-0.828,0-1.5-0.671-1.5-1.5V17.725
				c0-0.828,0.671-1.499,1.498-1.5l5.619-0.007c0.006,0,0.013,0,0.019,0c7.842,0.087,12.161,3.656,12.161,10.052
				C28.458,32.37,23.653,36.467,16.502,36.467z M12.162,33.467h4.341c5.524,0,8.956-2.758,8.956-7.197c0-1.719,0-6.947-9.186-7.052
				l-4.111,0.005V33.467z M53.629,33.386c-0.159,0-0.32-0.025-0.475-0.077l-0.926-0.313c-1.688-0.584-2.933-1.184-3.811-1.836
				c-1.066-0.79-1.747-1.726-2.021-2.777c-0.199-0.777-0.3-1.752-0.3-2.903c0-1.423,0.296-2.712,0.882-3.83
				c0.582-1.116,1.396-2.046,2.418-2.763c0.953-0.67,2.062-1.177,3.293-1.504c0.176-0.048,0.359-0.088,0.541-0.128
				c0.447-0.099,0.946,0.006,1.299,0.29c0.354,0.284,0.599,0.705,0.599,1.159v13.182c0,0.482-0.231,0.935-0.623,1.217
				C54.249,33.29,53.94,33.386,53.629,33.386z M52.129,20.762c-0.359,0.169-0.697,0.362-1.006,0.58
				c-0.628,0.439-1.126,1.01-1.484,1.696c-0.357,0.686-0.539,1.507-0.539,2.441c0,1.121,0.11,1.79,0.203,2.153
				c0.096,0.366,0.4,0.745,0.904,1.118c0.443,0.33,1.088,0.667,1.922,1.006V20.762z"/>
		</g>
	</g>
</g>
<g>
</g>
<g>
</g>
<g>
</g>
<g>
</g>
<g>
</g>
<g>
</g>
<g>
</g>
<g>
</g>
<g>
</g>
<g>
</g>
<g>
</g>
<g>
</g>
<g>
</g>
<g>
</g>
<g>
</g>
</svg>
