<?xml version="1.0" standalone="no"?>
<!DOCTYPE svg PUBLIC "-//W3C//DTD SVG 20010904//EN"
 "http://www.w3.org/TR/2001/REC-SVG-20010904/DTD/svg10.dtd">
<svg version="1.0" xmlns="http://www.w3.org/2000/svg"
 width="775.000000pt" height="748.000000pt" viewBox="0 0 775.000000 748.000000"
 preserveAspectRatio="xMidYMid meet">

<g transform="translate(0.000000,748.000000) scale(0.100000,-0.100000)"
fill="#000000" stroke="none">
<path d="M350 7337 c-49 -16 -133 -102 -148 -153 -9 -32 -12 -774 -12 -3315 0
-3562 -3 -3344 56 -3460 33 -67 137 -170 205 -205 113 -57 -96 -54 3458 -54
2541 0 3283 3 3315 12 86 26 166 136 166 228 0 92 -80 202 -166 228 -32 9
-770 12 -3298 12 l-3256 0 0 3256 c0 2528 -3 3266 -12 3298 -16 55 -99 138
-154 154 -49 14 -106 14 -154 -1z"/>
<path d="M5878 6134 c-179 -43 -330 -185 -389 -366 l-24 -73 0 -2065 0 -2065
24 -73 c60 -184 211 -324 393 -367 91 -21 755 -21 846 0 99 23 179 70 258 149
74 74 114 143 139 237 22 81 22 4157 0 4238 -25 94 -65 163 -139 237 -79 79
-159 126 -258 149 -88 21 -765 20 -850 -1z m764 -481 c17 -15 18 -91 18 -2021
0 -1852 -1 -2007 -17 -2024 -15 -17 -39 -18 -337 -18 -177 0 -326 4 -332 8
-34 22 -34 28 -34 2032 0 2004 0 2010 34 2032 6 4 155 8 330 8 283 0 321 -2
338 -17z"/>
<path d="M3745 5180 c-193 -40 -346 -178 -411 -370 -18 -53 -19 -118 -19
-1660 0 -1542 1 -1607 19 -1660 56 -166 170 -285 336 -350 l65 -25 415 0 415
0 65 25 c166 65 280 184 336 350 18 53 19 118 19 1660 0 1542 -1 1607 -19
1660 -56 166 -171 286 -336 349 l-65 26 -390 2 c-214 1 -408 -2 -430 -7z m745
-490 c20 -20 20 -33 20 -1540 0 -1507 0 -1520 -20 -1540 -19 -19 -33 -20 -340
-20 -307 0 -321 1 -340 20 -20 20 -20 33 -20 1540 0 1507 0 1520 20 1540 19
19 33 20 340 20 307 0 321 -1 340 -20z"/>
<path d="M1585 4460 c-193 -40 -346 -178 -411 -370 -18 -53 -19 -110 -19
-1300 0 -1190 1 -1247 19 -1300 56 -166 170 -285 336 -350 l65 -25 415 0 415
0 65 25 c166 65 280 184 336 350 18 53 19 110 19 1300 0 1190 -1 1247 -19
1300 -56 166 -171 286 -336 349 l-65 26 -390 2 c-214 1 -408 -2 -430 -7z m745
-490 c20 -20 20 -33 20 -1180 0 -1147 0 -1160 -20 -1180 -19 -19 -33 -20 -340
-20 -307 0 -321 1 -340 20 -20 20 -20 33 -20 1180 0 1147 0 1160 20 1180 19
19 33 20 340 20 307 0 321 -1 340 -20z"/>
</g>
</svg>
